<svg xmlns="http://www.w3.org/2000/svg" width="32" height="32" viewBox="0 0 32 32"><g fill="none" fill-rule="evenodd"><circle cx="16" cy="16" r="16" fill="#C3A634"/><path fill="#FFF" d="M13.248 14.61h4.314v2.286h-4.314v4.818h2.721c1.077 0 1.958-.145 2.644-.437.686-.291 1.224-.694 1.615-1.21.391-.515.67-1.126.837-1.832.167-.706.25-1.463.25-2.272 0-.809-.083-1.566-.25-2.272-.167-.706-.446-1.317-.837-1.832-.391-.516-.929-.919-1.615-1.21-.686-.292-1.567-.437-2.644-.437h-2.721v4.818zM9.252 24H6.98V8h9.539c1.888 0 3.49.246 4.807.738 1.317.491 2.386 1.159 3.206 2.004.82.845 1.419 1.843 1.797 2.994.378 1.151.567 2.389.567 3.714 0 1.325-.189 2.563-.567 3.714-.378 1.151-.977 2.149-1.797 2.994-.82.845-1.889 1.513-3.206 2.004C19.009 25.754 17.407 26 15.519 26H9.252v-2z"/></g></svg>